<?xml version="1.0" standalone="no"?>
<!DOCTYPE svg PUBLIC "-//W3C//DTD SVG 20010904//EN"
 "http://www.w3.org/TR/2001/REC-SVG-20010904/DTD/svg10.dtd">
<svg version="1.0" xmlns="http://www.w3.org/2000/svg"
 width="512.000000pt" height="512.000000pt" viewBox="0 0 512.000000 512.000000"
 preserveAspectRatio="xMidYMid meet">
<metadata>
Created by potrace 1.14, written by Peter Selinger 2001-2017
</metadata>
<g transform="translate(0.000000,512.000000) scale(0.100000,-0.100000)"
fill="#000000" stroke="none">
<path d="M1733 4912 c-33 -16 -63 -63 -58 -91 2 -9 4 -21 4 -28 1 -7 31 -40
67 -75 192 -183 285 -301 368 -466 37 -73 81 -193 90 -247 3 -17 10 -52 15
-79 18 -99 10 -245 -23 -396 -11 -47 -58 -175 -70 -188 -9 -9 -12 -4 -14 24
-4 56 -29 168 -58 252 -71 215 -235 392 -363 392 -32 0 -44 -6 -65 -31 -37
-44 -37 -57 1 -144 55 -125 25 -283 -100 -530 -60 -117 -187 -312 -286 -440
-181 -233 -314 -526 -356 -785 -4 -25 -9 -54 -12 -65 -2 -11 -6 -85 -8 -165
-4 -220 16 -367 80 -565 14 -44 30 -91 37 -105 6 -14 17 -38 24 -55 99 -234
225 -398 434 -567 202 -164 453 -279 720 -333 8 -1 40 -6 70 -10 30 -4 64 -9
75 -11 35 -7 238 -7 305 0 382 40 701 180 1014 446 104 88 256 264 342 395
106 163 211 399 240 540 1 6 9 44 18 85 37 181 43 459 12 660 -32 211 -103
442 -191 621 -47 97 -95 125 -156 94 -47 -25 -52 -45 -55 -244 -1 -102 -5
-197 -8 -211 -4 -14 -9 -41 -12 -60 -3 -19 -8 -38 -10 -41 -2 -3 -6 -21 -9
-39 -14 -82 -100 -254 -161 -325 l-25 -30 5 40 c28 201 28 629 1 765 -3 14
-10 53 -15 88 -40 243 -151 537 -292 771 -282 467 -804 890 -1368 1108 -151
59 -169 63 -207 45z"/>
</g>
</svg>
